#!OML:ASF F:\Work\Patient Classification 1\justin\Session 1\justin.ASF
:FULLY-SPECIFIED
:DEGREES
6123
root 1.12511 17.3804 1.7114 -3.30224 49.417 -2.05926
lowerback 12.2363 -1.73783 -2.96423
upperback 1.19493 -2.54809 2.16015
thorax -5.37309 -1.15386 4.36955
lowerneck -2.94849 -14.9217 -24.7104
upperneck 5.64872 -21.0785 23.4267
head 7.52889 -10.1712 9.2719
rclavicle 6.93262e-015 -2.78299e-014
rhumerus -21.1445 -6.22537 -74.867
rradius 137.36
rwrist -10.4929
rhand -15.7968 35.4112
rfingers 7.12502
rthumb 10.3962 5.68826
lclavicle 6.93262e-015 -2.78299e-014
lhumerus -25.2505 -32.1629 102.378
lradius 128.998
lwrist 7.5735
lhand -7.83568 8.6232
lfingers 7.12502
lthumb 18.0669 37.8041
rfemur -20.2975 -7.68869 10.7638
rtibia 41.6181
rfoot -10.1836 -8.9798
rtoes -30.0257
lfemur 0.952893 0.339337 -5.06362
ltibia 37.0052
lfoot -16.8598 -8.61246
ltoes -25.2136
6124
root 1.10174 17.3806 1.74498 -3.5468 49.2121 -2.60014
lowerback 12.2294 -1.65562 -2.80529
upperback 1.07883 -2.40806 2.32882
thorax -5.50459 -1.08174 4.43949
lowerneck -2.83581 -14.9084 -24.4621
upperneck 5.54106 -21.045 23.1974
head 7.40594 -10.1653 9.16937
rclavicle 1.00436e-013 -8.94531e-015
rhumerus -21.2545 -6.33025 -74.6793
rradius 137.123
rwrist -10.6899
rhand -15.4113 36.2269
rfingers 7.12502
rthumb 10.768 6.52289
lclavicle 1.00436e-013 -8.94531e-015
lhumerus -25.6305 -31.8302 102.668
lradius 128.97
lwrist 7.59008
lhand -7.66818 8.61594
lfingers 7.12502
lthumb 18.2281 37.7819
rfemur -20.5078 -7.26059 11.4457
rtibia 41.6057
rfoot -10.0088 -9.48948
rtoes -32.3555
lfemur 0.77678 0.496201 -4.59906
ltibia 36.9093
lfoot -16.9171 -8.12746
ltoes -26.9292
6125
root 1.10222 17.3909 1.7434 -2.48117 49.4778 -1.36198
lowerback 12.3229 -1.69575 -3.25319
upperback 0.955032 -2.54553 2.04001
thorax -5.66838 -1.1366 4.4182
lowerneck -2.6581 -14.8596 -24.2806
upperneck 5.36489 -20.9921 23.1811
head 7.28427 -10.1508 9.16123
rclavicle -7.53642e-014 3.37934e-015
rhumerus -21.4294 -6.15607 -74.7667
rradius 137.135
rwrist -10.1093
rhand -15.7281 34.2443
rfingers 7.12502
rthumb 10.4625 4.52468
lclavicle -7.53642e-014 3.37934e-015
lhumerus -25.9913 -31.5571 102.902
lradius 128.954
lwrist 7.43599
lhand -7.5972 8.52817
lfingers 7.12502
lthumb 18.2964 37.6877
rfemur -20.5706 -8.03126 10.4931
rtibia 41.5784
rfoot -9.84381 -8.99433
rtoes -32.9675
lfemur 0.644784 0.39559 -5.6476
ltibia 36.6883
lfoot -16.8657 -7.60325
ltoes -27.661
6126
root 1.09529 17.4054 1.76042 -1.99435 49.58 -0.784621
lowerback 12.1762 -1.66918 -3.65693
upperback 1.03135 -2.56381 1.9929
thorax -5.48844 -1.14318 4.59064
lowerneck -2.56001 -14.854 -24.3378
upperneck 5.15382 -20.9943 23.3702
head 7.23543 -10.1567 9.24136
rclavicle 2.59414e-014 -1.2921e-014
rhumerus -21.1115 -6.61127 -74.4984
rradius 136.733
rwrist -11.2236
rhand -14.3299 35.9531
rfingers 7.12502
rthumb 11.811 6.30619
lclavicle 2.59414e-014 -1.2921e-014
lhumerus -26.0947 -31.4102 103.143
lradius 128.863
lwrist 7.17412
lhand -7.77386 8.41197
lfingers 7.12502
lthumb 18.1264 37.5874
rfemur -20.5651 -8.10068 10.0634
rtibia 41.5083
rfoot -9.95679 -8.75197
rtoes -30.7061
lfemur 0.752342 0.351556 -6.08048
ltibia 36.3601
lfoot -16.7189 -7.35703
ltoes -27.1956
6127
root 1.08079 17.4278 1.77462 -2.29663 49.385 -1.44379
lowerback 11.9485 -1.62044 -3.33009
upperback 1.07057 -2.43507 2.20851
thorax -5.33762 -1.08988 4.60131
lowerneck -2.66161 -14.9135 -24.4482
upperneck 5.10991 -21.0516 23.429
head 7.27431 -10.178 9.25699
rclavicle 2.36305e-014 -1.55052e-014
rhumerus -20.7841 -6.51367 -74.3445
rradius 136.46
rwrist -10.6795
rhand -14.8115 35.8412
rfingers 7.12502
rthumb 11.3465 6.16818
lclavicle 2.36305e-014 -1.55052e-014
lhumerus -26.179 -31.2391 103.487
lradius 128.646
lwrist 6.82414
lhand -8.07125 8.23028
lfingers 7.12502
lthumb 17.8403 37.432
rfemur -20.8092 -7.42387 10.6024
rtibia 41.3912
rfoot -10.2145 -8.81488
rtoes -24.8536
lfemur 0.755934 0.586388 -5.53048
ltibia 35.9962
lfoot -16.5339 -7.25673
ltoes -27.306
